
<svg version="1.0" xmlns="http://www.w3.org/2000/svg"
 width="300.000000pt" height="300.000000pt" viewBox="0 0 300.000000 300.000000"
 preserveAspectRatio="xMidYMid meet">
<g transform="translate(0.000000,300.000000) scale(0.100000,-0.100000)"
fill="#000000" stroke="none">
<path d="M1385 2869 c-116 -7 -277 -41 -385 -82 -325 -122 -598 -365 -744
-662 -101 -204 -126 -327 -126 -620 0 -134 5 -231 15 -288 82 -472 430 -863
907 -1021 143 -48 270 -67 440 -67 254 0 447 44 660 152 363 183 630 536 703
928 20 109 20 472 0 584 -46 260 -175 498 -374 690 -118 113 -217 182 -363
252 -231 111 -448 150 -733 134z m-68 -1101 l183 -182 183 182 183 182 51 0
c59 0 101 -28 123 -80 28 -67 13 -90 -181 -285 l-179 -180 176 -175 c96 -96
182 -187 190 -202 30 -56 7 -134 -48 -164 -13 -8 -45 -13 -72 -14 l-50 0 -188
187 -188 187 -188 -187 -188 -187 -50 0 c-27 1 -59 6 -72 14 -55 30 -78 108
-48 164 8 15 94 106 190 202 l176 175 -179 180 c-194 195 -209 218 -181 285
22 52 64 80 123 80 l51 0 183 -182z"/>
</g>
</svg>
